<?xml version="1.0" encoding="UTF-8"?>
<svg id="Layer_1" xmlns="http://www.w3.org/2000/svg" version="1.1" viewBox="0 0 1560.2 1560.2">
  <!-- Generator: Adobe Illustrator 29.2.1, SVG Export Plug-In . SVG Version: 2.1.0 Build 116)  -->
  <defs>
    <style>
      .st0 {
        fill: #1a1a1a;
      }
    </style>
  </defs>
  <path class="st0" d="M780.1,1560.2c-105.31,0-207.47-20.63-303.65-61.31-92.89-39.29-176.32-95.54-247.96-167.18s-127.89-155.07-167.18-247.96C20.63,987.58,0,885.41,0,780.1s20.63-207.47,61.31-303.65c39.29-92.89,95.54-176.32,167.18-247.96s155.07-127.89,247.96-167.18C572.63,20.63,674.79,0,780.1,0s207.47,20.63,303.65,61.31c92.89,39.29,176.32,95.54,247.96,167.18s127.89,155.07,167.18,247.96c40.68,96.18,61.31,198.34,61.31,303.65s-20.63,207.47-61.31,303.65c-39.29,92.89-95.54,176.32-167.18,247.96s-155.07,127.89-247.96,167.18c-96.18,40.68-198.34,61.31-303.65,61.31ZM780.1,9c-104.1,0-205.08,20.39-300.15,60.6-91.82,38.84-174.29,94.44-245.1,165.25-70.82,70.82-126.42,153.28-165.25,245.1-40.21,95.06-60.6,196.05-60.6,300.15s20.39,205.08,60.6,300.15c38.84,91.82,94.44,174.29,165.25,245.11,70.82,70.82,153.28,126.42,245.1,165.25,95.06,40.21,196.05,60.59,300.15,60.59s205.08-20.39,300.15-60.59c91.82-38.84,174.29-94.44,245.11-165.25,70.82-70.82,126.42-153.28,165.25-245.11,40.21-95.06,60.59-196.05,60.59-300.15s-20.39-205.08-60.59-300.15c-38.84-91.82-94.44-174.29-165.25-245.1-70.82-70.82-153.28-126.42-245.11-165.25-95.06-40.21-196.05-60.6-300.15-60.6Z"/>
  <g>
    <path d="M414.91,312c-11,8.44-22.08,11.93-33.25,10.46-11.17-1.47-21.51-8.4-31.02-20.79l-37.89-49.35,9.11-6.99,37.61,48.99c7.81,10.17,15.87,15.92,24.18,17.23,8.31,1.31,16.65-1.24,25.02-7.67,8.45-6.49,13.12-13.91,13.99-22.29.88-8.37-2.59-17.64-10.4-27.81l-37.61-48.99,8.86-6.8,37.89,49.35c9.51,12.39,13.56,24.15,12.13,35.29-1.43,11.14-7.64,20.93-18.63,29.37Z"/>
    <path d="M479.57,265.64l-46.96-97.94,8.54-4.09,108.37,52.66-4.48,2.15-40.79-85.07,10.21-4.9,46.96,97.94-8.53,4.09-108.23-52.73,4.48-2.15,40.79,85.07-10.35,4.96Z"/>
    <path d="M597.28,215.51l-32-103.8,10.97-3.38,32,103.8-10.97,3.38Z"/>
    <path d="M667.8,197.68l-17.39-97.14-37.57,6.73-1.75-9.78,86.45-15.48,1.75,9.78-37.57,6.73,17.39,97.14-11.3,2.02Z"/>
    <path d="M783.29,185.69l.6-7.89,82.46-89.08.9,4.43-75.35-5.77.76-9.9,85.87,6.58-.6,7.89-82.3,89.09-1.06-4.44,78.29,6-.76,9.9-88.81-6.81Z"/>
    <path d="M895.49,197.3l26.76-105.27,72.19,18.35-2.45,9.62-61.06-15.52-21.86,86.02,63.31,16.09-2.45,9.62-74.44-18.92ZM917.8,151.1l2.41-9.47,55.64,14.14-2.41,9.47-55.64-14.14Z"/>
    <path d="M994.04,225.09l45.02-98.85,37,16.85c12.52,5.7,21.02,13.18,25.5,22.44,4.48,9.26,4.3,19.21-.55,29.84-3.17,6.97-7.53,12.23-13.07,15.79-5.54,3.56-11.94,5.31-19.18,5.25-7.25-.06-15.06-2-23.44-5.81l-31.21-14.21,6.85-2.68-16.46,36.15-10.45-4.76ZM1020.56,194.55l-2.41-7.06,30.93,14.08c9.88,4.5,18.38,5.76,25.48,3.76,7.1-1.99,12.43-6.9,15.99-14.71,3.6-7.91,3.82-15.2.66-21.86-3.16-6.67-9.68-12.25-19.57-16.75l-30.93-14.08,6.91-2.82-27.07,59.45ZM1061.54,255.83l-9.08-47.44,11.3,5.15,9.23,47.51-11.44-5.21Z"/>
    <path d="M1135.06,304.32c-6.59-4.84-11.88-10.43-15.89-16.77-4.01-6.34-6.59-13.05-7.75-20.13-1.16-7.07-.91-14.14.75-21.2,1.65-7.06,4.84-13.8,9.56-20.22,4.71-6.42,10.19-11.48,16.43-15.17,6.24-3.69,12.91-6.05,20.01-7.06,7.1-1.01,14.25-.57,21.46,1.32,7.21,1.89,14.15,5.29,20.82,10.19,6.59,4.84,11.86,10.41,15.83,16.72,3.96,6.31,6.54,12.98,7.73,20.02,1.19,7.03.94,14.1-.75,21.2-1.69,7.1-4.89,13.87-9.6,20.29-4.71,6.42-10.21,11.5-16.48,15.23-6.27,3.74-12.94,6.09-20.01,7.06-7.07.97-14.21.51-21.41-1.38-7.21-1.89-14.11-5.26-20.69-10.09ZM1141.12,296.06c5.25,3.86,10.77,6.53,16.54,8.01,5.78,1.48,11.52,1.79,17.23.91,5.71-.88,11.09-2.83,16.14-5.86,5.05-3.03,9.5-7.17,13.36-12.43s6.47-10.74,7.86-16.47c1.38-5.73,1.63-11.44.76-17.15-.88-5.71-2.89-11.1-6.03-16.17-3.15-5.07-7.34-9.53-12.6-13.39s-10.79-6.54-16.61-8.06c-5.82-1.51-11.59-1.83-17.3-.96-5.71.88-11.11,2.81-16.2,5.81-5.09,3-9.56,7.13-13.42,12.38-3.8,5.17-6.38,10.65-7.75,16.45-1.37,5.8-1.62,11.55-.74,17.26.87,5.71,2.91,11.12,6.09,16.22,3.19,5.1,7.41,9.58,12.66,13.43Z"/>
  </g>
  <g>
    <path d="M404.58,1377.42l92.39-70.36,9.71,5.2-7.24,115.91-10.38-5.55,7.64-108.34,3.99,2.13-85.88,66.49-10.24-5.48ZM434.65,1361.51l7.2-6.42,54.15,28.97-1.34,9.55-60-32.1Z"/>
    <path d="M535.54,1440.63l36.3-99.19,10.49,3.84-36.3,99.19-10.49-3.84Z"/>
    <path d="M595.63,1461.11l22.36-103.23,38.64,8.37c13.07,2.83,22.7,8.18,28.87,16.06,6.17,7.87,8.05,17.36,5.64,28.47-1.58,7.28-4.63,13.18-9.16,17.7-4.53,4.53-10.25,7.51-17.15,8.95-6.9,1.44-14.72,1.21-23.47-.68l-32.59-7.06,5.95-3.96-8.18,37.75-10.91-2.36ZM614.53,1426.6l-3.75-6.22,32.3,7c10.32,2.24,18.65,1.67,24.99-1.69,6.34-3.36,10.39-9.12,12.16-17.28,1.79-8.26.49-15.23-3.88-20.91-4.38-5.68-11.73-9.64-22.05-11.88l-32.3-6.99,5.98-4.11-13.45,62.08ZM666.12,1476.37l-18.43-43.21,11.8,2.55,18.58,43.24-11.94-2.59Z"/>
    <path d="M755.81,1485.28c-7.84-.27-15.31-1.81-22.41-4.62-7.1-2.81-12.54-6.29-16.33-10.45l4.67-8.45c3.59,3.75,8.49,6.96,14.69,9.64,6.2,2.68,12.77,4.14,19.7,4.37,6.63.23,12.07-.42,16.3-1.93,4.23-1.52,7.37-3.65,9.43-6.4,2.06-2.75,3.14-5.83,3.26-9.25.14-4.12-.93-7.48-3.2-10.07-2.28-2.59-5.3-4.69-9.07-6.27-3.77-1.59-7.95-3.01-12.54-4.28-4.59-1.26-9.17-2.6-13.75-4.02-4.58-1.42-8.77-3.25-12.57-5.49-3.8-2.24-6.82-5.14-9.06-8.69-2.24-3.55-3.27-8.14-3.08-13.77.18-5.23,1.72-9.98,4.64-14.26,2.91-4.28,7.28-7.65,13.1-10.12,5.82-2.47,13.2-3.55,22.15-3.24,5.93.2,11.78,1.23,17.56,3.09,5.77,1.86,10.72,4.32,14.84,7.38l-4.07,8.77c-4.42-3.17-9.15-5.55-14.17-7.13-5.03-1.58-9.91-2.45-14.63-2.61-6.33-.22-11.59.46-15.77,2.03-4.18,1.57-7.3,3.75-9.36,6.55s-3.15,6.01-3.27,9.63c-.14,4.12.93,7.48,3.2,10.07,2.27,2.59,5.32,4.66,9.15,6.2,3.82,1.54,8.03,2.94,12.61,4.21,4.59,1.27,9.14,2.63,13.67,4.09,4.53,1.46,8.69,3.29,12.49,5.49,3.8,2.19,6.82,5.04,9.07,8.54,2.24,3.5,3.27,8.01,3.08,13.54-.18,5.13-1.75,9.83-4.71,14.11-2.96,4.28-7.38,7.65-13.25,10.11-5.87,2.47-13.33,3.54-22.38,3.23Z"/>
    <path d="M890.33,1477.01c-7.85,1.25-15.33,1.09-22.46-.48-7.12-1.57-13.53-4.37-19.21-8.41-5.68-4.04-10.4-9.04-14.15-15.02-3.75-5.97-6.23-12.78-7.45-20.43-1.21-7.65-.97-14.89.75-21.74,1.71-6.84,4.65-13.06,8.8-18.66,4.15-5.6,9.35-10.24,15.58-13.94,6.24-3.69,13.33-6.17,21.28-7.43,7.85-1.25,15.31-1.08,22.38.49,7.07,1.58,13.45,4.36,19.12,8.34,5.68,3.99,10.39,8.99,14.15,15.02,3.76,6.03,6.25,12.86,7.46,20.51,1.22,7.65.97,14.92-.73,21.81-1.71,6.89-4.64,13.11-8.8,18.66-4.16,5.55-9.36,10.17-15.6,13.86-6.24,3.69-13.28,6.16-21.13,7.41ZM888.77,1467.18c6.26-.99,11.88-2.98,16.85-5.96,4.97-2.98,9.11-6.74,12.41-11.29,3.3-4.55,5.63-9.6,6.99-15.17,1.35-5.56,1.54-11.47.54-17.73-1-6.26-3-11.82-6.01-16.69-3.01-4.87-6.8-8.95-11.34-12.25-4.55-3.3-9.65-5.59-15.3-6.89-5.66-1.29-11.61-1.44-17.87-.44s-11.9,2.99-16.93,5.97c-5.02,2.99-9.19,6.76-12.49,11.3-3.3,4.55-5.65,9.61-7.06,15.18-1.41,5.57-1.61,11.49-.62,17.74.98,6.16,3,11.69,6.08,16.6,3.07,4.91,6.88,9.02,11.43,12.32,4.55,3.3,9.67,5.59,15.38,6.88,5.7,1.29,11.69,1.43,17.94.43Z"/>
    <path d="M992.44,1452.5l-36.55-99.09,67.95-25.07,3.34,9.06-57.47,21.2,33.21,90.03-10.48,3.86ZM986.28,1407.01l-3.34-9.06,52.38-19.32,3.34,9.06-52.38,19.32Z"/>
    <path d="M1125.19,1393.42l-48.28-82.94-32.08,18.67-4.86-8.35,73.81-42.96,4.86,8.35-32.08,18.67,48.28,82.94-9.65,5.62Z"/>
  </g>
  <path class="st0" d="M780.1,1318.26c-72.65,0-143.13-14.23-209.48-42.29-64.08-27.11-121.64-65.91-171.06-115.33s-88.22-106.97-115.33-171.06c-28.06-66.35-42.29-136.83-42.29-209.48s14.23-143.13,42.29-209.48c27.11-64.08,65.91-121.64,115.33-171.06,49.42-49.42,106.97-88.22,171.06-115.33,66.35-28.06,136.83-42.29,209.48-42.29s143.13,14.23,209.48,42.29c64.08,27.11,121.64,65.91,171.06,115.33,49.42,49.42,88.22,106.97,115.33,171.06,28.06,66.35,42.29,136.83,42.29,209.48s-14.23,143.13-42.29,209.48c-27.11,64.08-65.91,121.64-115.33,171.06s-106.97,88.22-171.06,115.33c-66.35,28.06-136.83,42.29-209.48,42.29ZM780.1,250.94c-71.44,0-140.74,13.99-205.97,41.58-63.01,26.65-119.6,64.81-168.2,113.4-48.6,48.6-86.75,105.19-113.4,168.2-27.59,65.23-41.58,134.53-41.58,205.97s13.99,140.74,41.58,205.97c26.65,63.01,64.81,119.6,113.4,168.2,48.6,48.6,105.19,86.75,168.2,113.41,65.23,27.59,134.53,41.58,205.97,41.58s140.74-13.99,205.97-41.58c63.01-26.65,119.6-64.81,168.2-113.41,48.6-48.6,86.75-105.19,113.41-168.2,27.59-65.23,41.58-134.53,41.58-205.97s-13.99-140.74-41.58-205.97c-26.65-63.01-64.81-119.6-113.41-168.2s-105.19-86.75-168.2-113.4c-65.23-27.59-134.53-41.58-205.97-41.58Z"/>
  <g>
    <polygon points="508.5 654.61 345.81 654.61 566.27 434.15 1347.79 434.15 853.64 928.3 700.08 928.3 1077.91 550.46 611.89 550.46 508.5 654.61"/>
    <polygon points="1051.7 905.59 1214.39 905.59 993.93 1126.06 212.41 1126.06 706.56 631.91 860.13 631.91 482.29 1009.74 948.31 1009.74 1051.7 905.59"/>
  </g>
  <path d="M100.85,814.5l-6.88-6.88,27.52-27.52-27.52-27.52,6.88-6.88,27.52,27.52,27.52-27.52,6.88,6.88-27.52,27.52,27.52,27.52-6.88,6.88-27.52-27.52-27.52,27.52Z"/>
  <path d="M1408.55,814.5l-6.88-6.88,27.52-27.52-27.52-27.52,6.88-6.88,27.52,27.52,27.52-27.52,6.88,6.88-27.52,27.52,27.52,27.52-6.88,6.88-27.52-27.52-27.52,27.52Z"/>
</svg>