<?xml version="1.0" encoding="utf-8"?>
<!-- Generator: Adobe Illustrator 27.7.0, SVG Export Plug-In . SVG Version: 6.00 Build 0)  -->
<svg version="1.1" id="Ebene_1" xmlns="http://www.w3.org/2000/svg" xmlns:xlink="http://www.w3.org/1999/xlink" x="0px" y="0px"
	 viewBox="0 0 2631.6 788.3" style="enable-background:new 0 0 2631.6 788.3;" xml:space="preserve">
<style type="text/css">
	.st0{fill:#113042;}
	.st1{fill:#113042;stroke:#3790AF;stroke-miterlimit:10;}
</style>
<g>
	<g>
		<path class="st0" d="M0,0.1h640.3c0,0,209.6-9.8,219.4,212.9C869.5,435.6,624,442.1,624,442.1H84.5V707h94.3V525h325l105.6,182
			h104L612.7,523.4h102.4L860,788.3H564l-104-177.1H258.4v177.1H0V352.8h642c0,0,125.1,3.3,130-138.1
			C776.9,73.2,612.7,86.2,612.7,86.2H81.3V174h529.8c0,0,66.6-4.9,68.3,40.6c1.6,45.5-47.1,43.9-47.1,43.9H0V0.1z"/>
	</g>
	<g>
		<path class="st1" d="M1269.8,450.4L1199.3,326h-30.1v124.4h-64.1V131.1h119.8c24.7,0,45.8,4.4,63.2,13.1
			c17.4,8.7,30.5,20.5,39,35.2c8.7,14.9,13.1,31.4,13.1,49.6c0,21-6.2,40.1-18.3,57c-12.2,16.9-30.3,28.7-54.5,35l76.4,129.4
			L1269.8,450.4L1269.8,450.4z M1169.2,277.9h53.6c17.4,0,30.3-4.2,38.9-12.5c8.5-8.4,12.9-20,12.9-35c0-14.7-4.4-26-12.9-34.1
			c-8.5-8.2-21.4-12.2-38.9-12.2h-53.6V277.9z"/>
		<path class="st1" d="M1462.4,182.8v80.1h107.5v50.8h-107.5v84.6h121.3v52.1h-185.4V130.4h185.4v52.1h-121.3V182.8z"/>
		<path class="st1" d="M1928.6,131l-117.1,319.4h-77.7L1616.6,131h68.6l87.9,254l87.4-254H1928.6z"/>
		<path class="st1" d="M2031.2,131v319.4h-64.1V131L2031.2,131L2031.2,131z"/>
		<path class="st1" d="M2100,205.8c14.2-24.9,33.6-44.3,58.1-58.1c24.5-13.8,52.1-20.9,82.6-20.9c35.8,0,67,9.1,93.9,27.4
			c26.9,18.3,45.6,43.6,56.3,75.9h-73.7c-7.3-15.3-17.6-26.7-30.9-34.3c-13.3-7.6-28.7-11.4-45.9-11.4c-18.5,0-35.2,4.4-49.6,13.1
			c-14.6,8.7-25.8,21-33.8,36.8c-8.2,15.8-12.2,34.5-12.2,55.8c0,21,4,39.6,12.2,55.6c8,16,19.4,28.3,33.8,37.1
			c14.6,8.7,31.1,13.1,49.6,13.1c17.4,0,32.7-3.8,45.9-11.6c13.3-7.8,23.6-19.2,30.9-34.5h73.7c-10.7,32.7-29.4,58.1-56.1,76.3
			c-26.7,18.2-58.1,27.2-94.1,27.2c-30.5,0-58.1-6.9-82.6-20.9c-24.5-13.8-44-33.2-58.1-57.9c-14.2-24.7-21.3-52.8-21.3-84.2
			C2078.8,258.9,2085.8,230.7,2100,205.8z"/>
		<path class="st1" d="M2509.8,182.8v80.1h107.5v50.8h-107.5v84.6h121.3v52.1h-185.4V130.4h185.4v52.2h-121.3V182.8z"/>
	</g>
	<g>
		<path class="st0" d="M1252.8,512.1v149.3h-15.1V542.2l-53.2,119.3h-11.1l-53.2-118.8v118.8h-15.1V512.1h16l57.8,129.4l57.8-129.4
			H1252.8z"/>
		<path class="st0" d="M1302.4,522.5V579h57.4v12.5h-57.4v57.4h63.8v12.5h-79V510h79v12.5H1302.4z"/>
		<path class="st0" d="M1483.9,519.2c12,6.1,21.1,14.8,27.5,26.2c6.3,11.4,9.5,25,9.5,40.7c0,15.5-3.2,29-9.5,40.4
			s-15.5,20-27.5,25.9c-12,6-26.3,9-43.1,9H1396V510.2h44.8C1457.6,510.2,1471.9,513.2,1483.9,519.2z M1489,632.3
			c11.1-11.1,16.6-26.5,16.6-46.2c0-19.9-5.5-35.4-16.6-46.6c-11.1-11.2-27-16.7-48.2-16.7h-29.6v126.1h29.6
			C1461.9,648.9,1477.9,643.4,1489,632.3z"/>
		<path class="st0" d="M1563.9,510.2v151.3h-15.1V510.2H1563.9z"/>
		<path class="st0" d="M1686.1,625.5h-68.7l-13.2,35.9h-16l55.2-149.3h17.1l54.9,149.3h-16L1686.1,625.5z M1681.5,612.9l-29.9-81.8
			l-29.9,81.8H1681.5z"/>
	</g>
</g>
</svg>
